<svg version="1.1" xmlns="http://www.w3.org/2000/svg" xmlns:xlink="http://www.w3.org/1999/xlink" width="700" height="700" viewBox="450,-0.5,700,700"><defs><clipPath id="clip-1"><rect x="713.5" y="324.58331" width="173" height="50" id="clip-1" fill="none" fill-rule="nonzero"/></clipPath><linearGradient x1="886.472" y1="331.60757" x2="804.6971" y2="400.06561" gradientUnits="userSpaceOnUse" id="color-1"><stop offset="0" stop-color="#f0ff6c"/><stop offset="1" stop-color="#6bfdd9"/></linearGradient><linearGradient x1="763.4873" y1="324.61701" x2="704.21787" y2="341.00441" gradientUnits="userSpaceOnUse" id="color-2"><stop offset="0" stop-color="#f0ff6c"/><stop offset="1" stop-color="#6bfdd9"/></linearGradient></defs><g id="document" fill="#ffffff" fill-rule="nonzero" stroke="#000000" stroke-width="0" stroke-linecap="butt" stroke-linejoin="miter" stroke-miterlimit="10" stroke-dasharray="" stroke-dashoffset="0" font-family="none" font-weight="none" font-size="none" text-anchor="none" style="mix-blend-mode: normal"><rect x="450" y="-0.35714" transform="scale(1,1.4)" width="700" height="500" id="Shape 1 1" vector-effect="non-scaling-stroke"/></g><g fill="none" fill-rule="none" stroke="none" stroke-width="1" stroke-linecap="butt" stroke-linejoin="miter" stroke-miterlimit="10" stroke-dasharray="" stroke-dashoffset="0" font-family="none" font-weight="none" font-size="none" text-anchor="none" style="mix-blend-mode: normal"><g><g id="stage"><g id="layer1 1"><g clip-path="url(#clip-1)" id="Group 1"><path d="M882.101,360.85331c-0.96,0 -1.77,-0.32 -2.43,-0.96c-0.66,-0.64 -0.99,-1.45 -0.99,-2.43c0,-1.02 0.33,-1.83 0.99,-2.43c0.66,-0.62 1.47,-0.93 2.43,-0.93c0.96,0 1.77,0.31 2.43,0.93c0.66,0.6 0.99,1.41 0.99,2.43c0,0.98 -0.33,1.79 -0.99,2.43c-0.66,0.64 -1.47,0.96 -2.43,0.96z" id="Path 1" fill="url(#color-1)" fill-rule="nonzero"/><circle cx="738.5" cy="349.58331" r="25" id="Shape 1" fill="url(#color-2)" fill-rule="nonzero"/><path d="M749.4456,344.22761c0.0354,-0.2405 0.0538,-0.4866 0.0538,-0.737c0,-0.4349 -0.0556,-0.8573 -0.1599,-1.2597c-0.2094,-0.8094 -0.6249,-1.5749 -1.2452,-2.2092c-0.4859,-0.4968 -1.0501,-0.8649 -1.6519,-1.1041c-0.5403,-0.2157 -1.1281,-0.3343 -1.7424,-0.3343c-0.7767,0 -1.5112,0.1897 -2.1607,0.5254c-0.2855,0.1472 -0.5596,0.3255 -0.8175,0.5348c-0.1454,0.1178 -0.2839,0.244 -0.4148,0.3778c-0.0309,0.0316 -0.0619,0.0643 -0.0923,0.0974c-0.8749,0.9447 -1.3138,2.1595 -1.3124,3.373c-0.0017,1.2553 0.4681,2.5123 1.4047,3.4699c0.9366,0.9576 2.1659,1.438 3.3936,1.4362c1.2278,0.0016 2.4571,-0.4786 3.3937,-1.4362c0.7529,-0.77 1.2041,-1.7334 1.3513,-2.734zM743.2944,349.54741c1.3124,0.0083 2.5021,0.5558 3.3625,1.4378c0.8693,0.8867 1.4064,2.1151 1.4064,3.4693c0,1.3542 -0.5371,2.5827 -1.4064,3.4693c-0.1308,0.1358 -0.2707,0.2622 -0.4164,0.3794c-0.8177,0.663 -1.8531,1.0586 -2.9771,1.0586c-2.651,0 -4.7994,-2.1967 -4.7994,-4.9073c0,-1.3542 -0.5371,-2.5826 -1.4064,-3.4693c-0.8671,-0.8888 -2.0686,-1.4379 -3.393,-1.4379c-2.651,0 -4.7994,-2.1967 -4.7994,-4.9073c0,-1.3542 0.5371,-2.5827 1.4064,-3.4693c0.8671,-0.8888 2.0686,-1.438 3.393,-1.438c1.3244,0 2.5259,0.5492 3.393,1.438c0.8693,0.8866 1.4064,2.1151 1.4064,3.4693c0,2.7106 2.1484,4.9073 4.7994,4.9073l0.0005,-0.0001zM728.9047,359.14711c-0.9366,-0.9576 -1.4064,-2.2145 -1.4047,-3.4699c-0.0015,-1.2134 0.4374,-2.4282 1.3122,-3.3728c0.0305,-0.0332 0.0615,-0.0659 0.0925,-0.0976c0.1309,-0.1338 0.2694,-0.26 0.4148,-0.3778c0.2578,-0.2092 0.5319,-0.3875 0.8173,-0.5347c0.6496,-0.3358 1.3841,-0.5255 2.1609,-0.5255c0.6142,0 1.202,0.1187 1.7423,0.3343c0.6018,0.2393 1.166,0.6073 1.6519,1.1042c0.6214,0.6353 1.0372,1.4023 1.2463,2.2132c0.1036,0.4012 0.1588,0.8222 0.1588,1.2556c0,0.2395 -0.0168,0.475 -0.0492,0.7054c-0.0036,0.0255 -0.0074,0.051 -0.0114,0.0765c-0.1539,0.9845 -0.6028,1.9307 -1.3445,2.6891c-0.9365,0.9577 -2.1658,1.4378 -3.3936,1.4363c-1.2278,0.0017 -2.4571,-0.4786 -3.3936,-1.4363z" id="CompoundPath 1" fill="#163031" fill-rule="evenodd"/></g><text x="919.58806" y="553.16129" transform="scale(0.89388,0.64583)" id="PointText 1" fill="#fefaf6" fill-rule="nonzero" font-family="font-AlexBrush-Regular-OTF" font-weight="normal" font-size="40" text-anchor="middle">Adarsh</text></g></g></g></g></svg>