<svg width="173" height="50" viewBox="0 0 173 50" fill="none" xmlns="http://www.w3.org/2000/svg">
<text fill="#F8F8F8" font-family="Arial" font-size="34px" font-weight="bold" x="50" y="40">Adarsh</text><path d="M168.601 36.27C167.641 36.27 166.831 35.95 166.171 35.31C165.511 34.67 165.181 33.86 165.181 32.88C165.181 31.86 165.511 31.05 166.171 30.45C166.831 29.83 167.641 29.52 168.601 29.52C169.561 29.52 170.371 29.83 171.031 30.45C171.691 31.05 172.021 31.86 172.021 32.88C172.021 33.86 171.691 34.67 171.031 35.31C170.371 35.95 169.561 36.27 168.601 36.27Z" fill="url(#paint0_linear_1730_1368)"/>
<circle cx="25" cy="25" r="25" fill="url(#paint1_linear_1730_1368)"/>
<!--<path fill-rule="evenodd" clip-rule="evenodd" d="M35.9456 19.6443C35.981 19.4038 35.9994 19.1577 35.9994 18.9073C35.9994 18.4724 35.9438 18.05 35.8395 17.6476C35.6301 16.8382 35.2146 16.0727 34.5943 15.4384C34.1084 14.9416 33.5442 14.5735 32.9424 14.3343C32.4021 14.1186 31.8143 14 31.2 14C30.4233 14 29.6888 14.1897 29.0393 14.5254C28.7538 14.6726 28.4797 14.8509 28.2218 15.0602C28.0764 15.178 27.9379 15.3042 27.807 15.438C27.7761 15.4696 27.7451 15.5023 27.7147 15.5354C26.8398 16.4801 26.4009 17.6949 26.4023 18.9084C26.4006 20.1637 26.8704 21.4207 27.807 22.3783C28.7436 23.3359 29.9729 23.8163 31.2006 23.8145C32.4284 23.8161 33.6577 23.3359 34.5943 22.3783C35.3472 21.6083 35.7984 20.6449 35.9456 19.6443ZM29.7944 24.9641C31.1068 24.9724 32.2965 25.5199 33.1569 26.4019C34.0262 27.2886 34.5633 28.517 34.5633 29.8712C34.5633 31.2254 34.0262 32.4539 33.1569 33.3405C33.0261 33.4763 32.8862 33.6027 32.7405 33.7199C31.9228 34.3829 30.8874 34.7785 29.7634 34.7785C27.1124 34.7785 24.964 32.5818 24.964 29.8712C24.964 28.517 24.4269 27.2886 23.5576 26.4019C22.6905 25.5131 21.489 24.964 20.1646 24.964C17.5136 24.964 15.3652 22.7673 15.3652 20.0567C15.3652 18.7025 15.9023 17.474 16.7716 16.5874C17.6387 15.6986 18.8402 15.1494 20.1646 15.1494C21.489 15.1494 22.6905 15.6986 23.5576 16.5874C24.4269 17.474 24.964 18.7025 24.964 20.0567C24.964 22.7673 27.1124 24.964 29.7634 24.964L29.7639 24.9639L29.7944 24.9641ZM15.4047 34.5638C14.4681 33.6062 13.9983 32.3493 14 31.0939C13.9985 29.8805 14.4374 28.6657 15.3122 27.7211C15.3427 27.6879 15.3737 27.6552 15.4047 27.6235C15.5356 27.4897 15.6741 27.3635 15.8195 27.2457C16.0773 27.0365 16.3514 26.8582 16.6368 26.711C17.2864 26.3752 18.0209 26.1855 18.7977 26.1855C19.4119 26.1855 19.9997 26.3042 20.54 26.5198C21.1418 26.7591 21.706 27.1271 22.1919 27.624C22.8133 28.2593 23.2291 29.0263 23.4382 29.8372C23.5418 30.2384 23.597 30.6594 23.597 31.0928C23.597 31.3323 23.5802 31.5678 23.5478 31.7982C23.5442 31.8237 23.5404 31.8492 23.5364 31.8747C23.3825 32.8592 22.9336 33.8054 22.1919 34.5638C21.2554 35.5215 20.0261 36.0016 18.7983 36.0001C17.5705 36.0018 16.3412 35.5215 15.4047 34.5638Z" fill="#163031"/>
--><defs>
<linearGradient id="paint0_linear_1730_1368" x1="172.972" y1="7.02426" x2="91.1971" y2="75.4823" gradientUnits="userSpaceOnUse">
<stop stop-color="#F0FF6C"/>
<stop offset="1" stop-color="#6BFDD9"/>
</linearGradient>
<linearGradient id="paint1_linear_1730_1368" x1="49.9873" y1="0.033695" x2="-9.28213" y2="16.4211" gradientUnits="userSpaceOnUse">
<stop stop-color="#F0FF6C"/>
<stop offset="1" stop-color="#6BFDD9"/>
</linearGradient>
</defs>
</svg>
